<svg xmlns="http://www.w3.org/2000/svg" viewBox="0 0 594.94 144"><path d="M216,121.05v-44h28.49v8.23H226.26v9h17.21v8.22H226.26v10.2h18.81v8.35Z" transform="translate(-36 -36)" style="fill:#003561"/><path d="M269.68,121.05V104.67c0-4.15-.64-7.27-4.85-7.27-4.4,0-5.61,3.57-5.61,8.1v15.55H249V89.62h10.2l-.06,4.53h.12a10.2,10.2,0,0,1,9.12-5.1c9.12,0,11.48,5.86,11.48,13.45v18.55Z" transform="translate(-36 -36)" style="fill:#003561"/><path d="M338.78,121.75c-9.95,0-17.47-6.18-17.47-16.32s7.52-16.38,17.47-16.38,17.4,6.25,17.4,16.38S348.72,121.75,338.78,121.75Zm0-24.67c-4.53,0-7.14,3.51-7.14,8.16s2.61,8.16,7.14,8.16,7.14-3.5,7.14-8.16S343.24,97.08,338.78,97.08Z" transform="translate(-36 -36)" style="fill:#003561"/><path d="M380.09,99h-.45a8.34,8.34,0,0,0-3.7-.76c-5,0-6.31,4.72-6.31,8.86v14h-10.2V89.62h10.2l-.06,4.46h.13c1.78-3.44,4.4-5,7.77-5a7.36,7.36,0,0,1,3.19.57Z" transform="translate(-36 -36)" style="fill:#003561"/><path d="M393.47,121.75a19.29,19.29,0,0,1-13.26-4.84l3.83-6.06c2.55,2.17,6.76,3.83,9.31,3.83s4.33-.64,4.33-2.68-4.59-3.06-5.74-3.44c-5.22-1.34-9.81-3.19-9.81-9.69,0-6.12,5.35-9.89,11.92-9.89s10.26,2.43,12.05,3.89l-3.32,6c-1.78-1.41-5.35-3.06-7.9-3.06s-3.77.63-3.77,2.29,2.43,2.42,4.6,3.06c5.41,1.6,11.09,3.25,11.09,10.2C406.8,118.88,400,121.75,393.47,121.75Z" transform="translate(-36 -36)" style="fill:#003561"/><path d="M441.48,107.79H419.1c.45,4.53,3.89,6.57,8,6.57a17.73,17.73,0,0,0,9.44-3l4,5.29c-1,.77-5.16,5.1-14.91,5.1s-16.77-6-16.77-16.38,7.65-16.32,17-16.32,15.74,6.18,15.74,15.36C441.6,105.94,441.48,107.79,441.48,107.79ZM425.67,95.68a6.4,6.4,0,0,0-6.51,6.31h12.95A6.34,6.34,0,0,0,425.67,95.68Z" transform="translate(-36 -36)" style="fill:#003561"/><path d="M216,172.8v-44h10.26v35.45H241.5v8.54Z" transform="translate(-36 -36)" style="fill:#003561"/><path d="M259.67,173.5c-10,0-17.47-6.18-17.47-16.32s7.52-16.38,17.47-16.38,17.4,6.25,17.4,16.38S269.61,173.5,259.67,173.5Zm0-24.67c-4.53,0-7.15,3.51-7.15,8.16s2.62,8.16,7.15,8.16,7.14-3.5,7.14-8.16S264.13,148.83,259.67,148.83Z" transform="translate(-36 -36)" style="fill:#003561"/><path d="M296.13,173.5c-8.61,0-16.57-5.86-16.57-16.32s8.09-16.38,16.7-16.38c8,0,11.66,3.31,11.66,3.31l-2.23,7.72A12.89,12.89,0,0,0,297.6,149c-4.34,0-7.78,3-7.78,8s3.12,8.1,7.9,8.1a12.4,12.4,0,0,0,8-3.06l2.43,7.71C307.8,170,304.48,173.5,296.13,173.5Z" transform="translate(-36 -36)" style="fill:#003561"/><path d="M330.43,172.8l-.2-3.31a11.68,11.68,0,0,1-9,4c-5.55,0-11.41-3-11.41-10s6.43-9.37,12.23-9.62l7.91-.32v-.7c0-3.32-2.36-5-6.44-5a20.1,20.1,0,0,0-9.63,2.81L311.24,144a30.87,30.87,0,0,1,13.45-3.19c9.82,0,15.49,4.08,15.49,14.28V172.8ZM325,159.29c-3.13.12-5,1.46-5,3.82s2,3.89,4.79,3.89a6.25,6.25,0,0,0,5.22-2.87V159Z" transform="translate(-36 -36)" style="fill:#003561"/><path d="M385.25,156.54h-5.42V172.8H369.5v-44h15.75c9,0,16.06,4,16.06,13.84S394.24,156.54,385.25,156.54Zm-1.47-19.76h-4v11.8h4c4,0,7.08-1.41,7.08-5.93S387.74,136.78,383.78,136.78Z" transform="translate(-36 -36)" style="fill:#003561"/><path d="M424.58,150.74h-.44a8.41,8.41,0,0,0-3.7-.76c-5,0-6.31,4.72-6.31,8.86v14h-10.2V141.37h10.2l-.07,4.46h.13c1.79-3.44,4.4-5,7.78-5a7.42,7.42,0,0,1,3.19.57Z" transform="translate(-36 -36)" style="fill:#003561"/><path d="M442.94,173.5c-9.94,0-17.47-6.18-17.47-16.32S433,140.8,442.94,140.8s17.41,6.25,17.41,16.38S452.89,173.5,442.94,173.5Zm0-24.67c-4.52,0-7.14,3.51-7.14,8.16s2.62,8.16,7.14,8.16,7.14-3.5,7.14-8.16S447.4,148.83,442.94,148.83Z" transform="translate(-36 -36)" style="fill:#003561"/><path d="M481.25,172.8h-9.56l-12.88-31.43h10.65l7.14,19.89,7.08-19.89H494.2Z" transform="translate(-36 -36)" style="fill:#003561"/><path d="M500.82,137.74c-3.44,0-5.8-2.11-5.8-5.29s2.36-5.29,5.8-5.29,5.81,2.16,5.81,5.29S504.27,137.74,500.82,137.74Zm-5.1,35.06V141.37h10.2V172.8Z" transform="translate(-36 -36)" style="fill:#003561"/><path d="M580.64,159.54H558.26c.45,4.53,3.89,6.57,8,6.57a17.73,17.73,0,0,0,9.44-3l4,5.29c-1,.77-5.17,5.1-14.92,5.1s-16.77-6-16.77-16.38,7.65-16.32,17-16.32,15.75,6.18,15.75,15.36C580.77,157.69,580.64,159.54,580.64,159.54Zm-15.81-12.11a6.4,6.4,0,0,0-6.51,6.31h12.95A6.34,6.34,0,0,0,564.83,147.43Z" transform="translate(-36 -36)" style="fill:#003561"/><path d="M604.54,150.74h-.44a8.37,8.37,0,0,0-3.7-.76c-5,0-6.31,4.72-6.31,8.86v14h-10.2V141.37h10.2l-.06,4.46h.12c1.79-3.44,4.4-5,7.78-5a7.42,7.42,0,0,1,3.19.57Z" transform="translate(-36 -36)" style="fill:#003561"/><path d="M617.61,173.5a19.28,19.28,0,0,1-13.26-4.84l3.83-6.06c2.55,2.17,6.75,3.83,9.3,3.83s4.34-.64,4.34-2.68-4.59-3.06-5.74-3.44c-5.23-1.34-9.82-3.19-9.82-9.69,0-6.12,5.36-9.89,11.93-9.89s10.26,2.43,12,3.89l-3.31,6c-1.79-1.41-5.36-3.06-7.91-3.06s-3.76.63-3.76,2.29,2.43,2.42,4.59,3.06c5.42,1.6,11.1,3.25,11.1,10.2C630.94,170.63,624.11,173.5,617.61,173.5Z" transform="translate(-36 -36)" style="fill:#003561"/><path d="M308.31,121.05l.06-4.14-.19.06a12.44,12.44,0,0,1-10.33,4.78c-9.11,0-14.85-7.14-14.85-16.38s5.74-16.32,14.85-16.32c5.74,0,8.93,2.87,9.95,4.4V83.06l10.2-6v44Zm-7.53-24c-4.39,0-7.39,3.32-7.39,8.16s3,8.16,7.39,8.16,7.34-3.31,7.34-8.16S305.18,97.08,300.78,97.08Z" transform="translate(-36 -36)" style="fill:#003561"/><path d="M469.46,121.05l.07-4.14-.19.06A12.44,12.44,0,0,1,459,121.75c-9.12,0-14.86-7.14-14.86-16.38S449.89,89.05,459,89.05c5.74,0,8.92,2.87,9.94,4.4V83.06l10.2-6v44Zm-7.52-24c-4.4,0-7.39,3.32-7.39,8.16s3,8.16,7.39,8.16,7.33-3.31,7.33-8.16S466.34,97.08,461.94,97.08Z" transform="translate(-36 -36)" style="fill:#003561"/><path d="M534.74,172.8l.06-4.14-.19.06a12.44,12.44,0,0,1-10.33,4.78c-9.11,0-14.85-7.14-14.85-16.38s5.74-16.32,14.85-16.32c5.74,0,8.93,2.87,10,4.4V134.81l10.2-6v44Zm-7.52-24c-4.4,0-7.4,3.32-7.4,8.16s3,8.16,7.4,8.16,7.33-3.31,7.33-8.16S531.61,148.83,527.22,148.83Z" transform="translate(-36 -36)" style="fill:#003561"/><path d="M344.64,172.8v-38l10.2-6v44Z" transform="translate(-36 -36)" style="fill:#003561"/><rect width="144" height="144" rx="14.4" style="fill:#00b2f6"/><path d="M128.07,125.55a5.71,5.71,0,0,0,2.56,9.55l16.62,4.45,12.14-45.32Z" transform="translate(-36 -36)" style="fill:#fff"/><path d="M56.61,121.77,68.75,76.45,85.37,80.9a5.71,5.71,0,0,1,2.56,9.55Z" transform="translate(-36 -36)" style="fill:#fff"/><path d="M121.77,56.61h0L155,89.79,142.79,102a5.71,5.71,0,0,1-9.56-2.56Z" transform="translate(-36 -36)" style="fill:#fff"/><path d="M82.77,116.61a5.71,5.71,0,0,0-9.56-2.56L61.05,126.21l33.18,33.18h0Z" transform="translate(-36 -36)" style="fill:#fff"/><path d="M70.38,70.38,115.7,58.24l4.45,16.61a5.71,5.71,0,0,1-7,7Z" transform="translate(-36 -36)" style="fill:#fff"/><path d="M145.62,145.62,100.3,157.76l-4.45-16.61a5.71,5.71,0,0,1,7-7Z" transform="translate(-36 -36)" style="fill:#fff"/><path d="M299.18,42.8a14.81,14.81,0,0,1,9.3,2.86l.29.22-3.23,4.52A11.74,11.74,0,0,0,299,48.12c-1.49,0-2.26.61-2.32,1.38v.18c0,1,.8,1.52,4,2.24,5.25,1.14,8.55,2.81,8.68,7v.33c0,4.72-3.76,7.54-9.42,7.54a16.4,16.4,0,0,1-10.6-3.57l-.3-.26,3.59-4.27a12,12,0,0,0,7.55,2.79c1.65,0,2.57-.55,2.65-1.46v-.2c0-1-.77-1.49-3.93-2.22-4.87-1.1-8.64-2.46-8.78-7v-.34c0-4.3,3.42-7.41,9-7.41Z" transform="translate(-36 -36)" style="fill:#003561;fill-rule:evenodd"/><polygon points="233.45 7.2 239.01 16.17 244.56 7.2 251.38 7.2 251.38 30.36 244.96 30.36 244.96 17.05 239.01 26.13 238.87 26.13 232.95 17.13 232.95 30.36 228.98 30.36 226.63 24.89 226.63 7.2 233.45 7.2" style="fill:#003561;fill-rule:evenodd"/><polygon points="300.87 7.2 305.65 15.64 310.47 7.2 317.69 7.2 308.84 21.59 308.84 30.36 302.36 30.36 302.36 21.7 293.51 7.2 300.87 7.2" style="fill:#003561;fill-rule:evenodd"/><polygon points="290.27 7.2 293.59 12.66 282.01 12.66 282.01 16.17 292.23 16.17 292.23 21.23 282.01 21.23 282.01 24.9 293.89 24.9 293.89 30.36 275.62 30.36 275.62 7.2 290.27 7.2" style="fill:#003561;fill-rule:evenodd"/><path d="M252,43l9.91,23.33H255l-1.7-4.14h-9l-1.66,4.14h-1.9l-3-4.4,8-18.93Zm-3.16,7.62-2.63,6.58h5.22Z" transform="translate(-36 -36)" style="fill:#003561;fill-rule:evenodd"/><path d="M227,43.2c3.56,0,6,.92,7.59,2.51a7.07,7.07,0,0,1,2,5v.41a7.28,7.28,0,0,1-4.52,7l-.26.11,5.56,8.07H230l-4.69-7h-2.82v7H216V43.2Zm-.33,5.55h-4.22v5.56h4.26c2.12,0,3.37-1,3.45-2.58V51.5c0-1.81-1.33-2.75-3.5-2.75Z" transform="translate(-36 -36)" style="fill:#003561;fill-rule:evenodd"/></svg>