<?xml version="1.0" encoding="utf-8"?>
<!-- Generator: Adobe Illustrator 26.5.0, SVG Export Plug-In . SVG Version: 6.00 Build 0)  -->
<svg version="1.1" id="Layer_1" xmlns="http://www.w3.org/2000/svg" xmlns:xlink="http://www.w3.org/1999/xlink" x="0px" y="0px"
	 viewBox="0 0 239.1 31.5" style="enable-background:new 0 0 239.1 31.5;" xml:space="preserve">
<style type="text/css">
	.st0{clip-path:url(#SVGID_00000167393124312775990160000013824293149836049808_);}
	.st1{clip-path:url(#SVGID_00000016777645150501515250000013237156057930166431_);fill:#17365F;}
	.st2{clip-path:url(#SVGID_00000016777645150501515250000013237156057930166431_);fill:#183760;}

		.st3{clip-path:url(#SVGID_00000171686691723346765030000007307682775008141992_);fill:url(#SVGID_00000002385102158402928980000014530701473687177370_);}
	.st4{clip-path:url(#SVGID_00000118391348457433998380000014279490139294613652_);fill:#FFFFFF;}
	.st5{clip-path:url(#SVGID_00000118391348457433998380000014279490139294613652_);fill:#183760;}
</style>
<g id="Layer_2_00000151516091428014562610000004010465182344179875_">
	<g>
		<defs>
			<rect id="SVGID_1_" x="0.2" y="0.2" width="238.7" height="31.2"/>
		</defs>
		<clipPath id="SVGID_00000014602757800204360150000002813767827037213582_">
			<use xlink:href="#SVGID_1_"  style="overflow:visible;"/>
		</clipPath>
		<g style="clip-path:url(#SVGID_00000014602757800204360150000002813767827037213582_);">
			<defs>
				<rect id="SVGID_00000158725811384338960820000005123506390885873819_" x="0.2" y="0.2" width="238.7" height="31.2"/>
			</defs>
			<clipPath id="SVGID_00000123424350470196307410000009031701451151566496_">
				<use xlink:href="#SVGID_00000158725811384338960820000005123506390885873819_"  style="overflow:visible;"/>
			</clipPath>
			<path style="clip-path:url(#SVGID_00000123424350470196307410000009031701451151566496_);fill:#17365F;" d="M96.2,12.2
				c-2.4-0.5-2.9-0.9-2.9-1.6v-0.1c0-0.6,0.6-1.1,1.7-1.1c1.5,0,3.2,0.6,4.8,1.7l2.4-3.3c-1.8-1.5-4.1-2.2-7-2.2
				c-4.1,0-6.6,2.3-6.6,5.4V11c0,3.5,2.8,4.5,6.4,5.3c2.3,0.5,2.9,0.9,2.9,1.6V18c0,0.7-0.7,1.2-1.9,1.2c-2,0-4-0.7-5.5-2l-2.6,3.1
				c2.1,1.9,5,2.8,8,2.8c4.1,0,6.9-2.1,6.9-5.5v-0.1C102.6,14.3,100.1,13,96.2,12.2"/>
			<polygon style="clip-path:url(#SVGID_00000123424350470196307410000009031701451151566496_);fill:#17365F;" points="108.8,16.1
				116.3,16.1 116.3,12.4 108.8,12.4 108.8,9.8 117.3,9.8 114.9,5.8 104.2,5.8 104.2,22.7 117.5,22.7 117.5,18.7 108.8,18.7 			"/>
			<polygon style="clip-path:url(#SVGID_00000123424350470196307410000009031701451151566496_);fill:#17365F;" points="129.6,5.8
				126.1,12 122.6,5.8 117.2,5.8 123.7,16.4 123.7,22.7 128.4,22.7 128.4,16.3 134.9,5.8 			"/>
			<polygon style="clip-path:url(#SVGID_00000123424350470196307410000009031701451151566496_);fill:#17365F;" points="77.4,12.4
				73.4,5.8 68.4,5.8 68.4,18.7 70.1,22.7 73,22.7 73,13.1 77.3,19.6 77.4,19.6 81.8,13 81.8,22.7 86.5,22.7 86.5,5.8 81.5,5.8
				"/>
			<path style="clip-path:url(#SVGID_00000123424350470196307410000009031701451151566496_);fill:#17365F;" d="M56.1,5.7l-5.9,13.8
				l2.2,3.2h1.4l1.2-3h6.6l1.2,3h5l-7.2-17H56.1z M56.4,16.1l1.9-4.8l1.9,4.8H56.4z"/>
			<path style="clip-path:url(#SVGID_00000123424350470196307410000009031701451151566496_);fill:#17365F;" d="M49.4,11.6L49.4,11.6
				c0-1.7-0.5-3-1.5-4c-1.1-1.2-2.9-1.8-5.5-1.8h-8v16.9h4.7v-5.1h2.1l3.4,5.1H50l-4.1-5.9C48.1,16,49.4,14.2,49.4,11.6 M44.7,11.9
				c0,1.2-0.9,2-2.5,2h-3.1V9.9h3.1C43.7,9.9,44.7,10.6,44.7,11.9L44.7,11.9z"/>
			<polygon style="clip-path:url(#SVGID_00000123424350470196307410000009031701451151566496_);fill:#183760;" points="138,7.6
				142.9,7.6 142.9,22.7 144.9,22.7 144.9,7.6 149.8,7.6 149.8,5.8 138,5.8 			"/>
			<path style="clip-path:url(#SVGID_00000123424350470196307410000009031701451151566496_);fill:#183760;" d="M162.8,10.5
				c0-2.9-2-4.7-5.3-4.7h-4.6v16.9h2v-7.4h1.8l4.6,7.4l0,0.1h2.5l-5-7.6C161.3,14.5,162.8,12.8,162.8,10.5 M160.7,10.6
				c0,1.4-0.5,2.9-4.1,2.9h-1.7V7.6h1.9C159.4,7.6,160.7,8.6,160.7,10.6"/>
			<path style="clip-path:url(#SVGID_00000123424350470196307410000009031701451151566496_);fill:#183760;" d="M176.4,15.8
				c0,1.4-0.1,2.8-0.8,3.8c-0.8,1-2,1.6-3.4,1.6c-1.4,0-2.7-0.6-3.4-1.6c-0.8-1-0.8-2.4-0.8-3.8v-10h-2v10c0,1.9,0.1,3.7,1.3,5.1
				c1.1,1.3,2.8,2,5,2c2.1,0,3.9-0.7,5-2.1c1.2-1.4,1.3-3.3,1.3-5.1v-10h-2L176.4,15.8z"/>
			<path style="clip-path:url(#SVGID_00000123424350470196307410000009031701451151566496_);fill:#183760;" d="M188,13.6l-2.3-1
				c-1.1-0.4-2.3-1.1-2.3-2.8c0-1.5,1.2-2.5,3.1-2.5c1.4,0,2.5,0.6,3.5,1.8l0.1,0.1l1.2-1.4l-0.1-0.1c-1.1-1.4-2.9-2.2-4.7-2.2
				c-2.6,0-5.2,1.5-5.2,4.4c0,2,0.9,3.3,2.9,4.2l2.5,1.1c1.7,0.8,2.9,1.6,2.9,3.2c0,1.7-1.3,2.8-3.4,2.8c-1.8,0-3.4-1.5-4.1-2.5
				l-0.1-0.1l-1.4,1.3l0,0.1c1,1.5,2.9,3,5.3,3c3.4,0,5.6-2,5.6-4.9C191.8,15.5,189.9,14.4,188,13.6"/>
			<polygon style="clip-path:url(#SVGID_00000123424350470196307410000009031701451151566496_);fill:#183760;" points="194.5,7.6
				199.4,7.6 199.4,22.7 201.4,22.7 201.4,7.6 206.3,7.6 206.3,5.8 194.5,5.8 			"/>
			<polygon style="clip-path:url(#SVGID_00000123424350470196307410000009031701451151566496_);fill:#183760;" points="211.5,14.7
				218.6,14.7 218.6,12.9 211.5,12.9 211.5,7.6 219,7.6 219,5.8 209.4,5.8 209.4,22.7 219.2,22.7 219.2,21 211.5,21 			"/>
			<path style="clip-path:url(#SVGID_00000123424350470196307410000009031701451151566496_);fill:#183760;" d="M227.1,5.8h-4.9v16.9
				h4.9c5.1,0,8.9-3.5,8.9-8.4C235.9,9.2,232.4,5.8,227.1,5.8 M233.8,14.3c0,3.9-2.8,6.6-6.8,6.6h-2.8V7.6h2.8
				C231.2,7.6,233.8,10.3,233.8,14.3"/>
		</g>
		<g style="clip-path:url(#SVGID_00000014602757800204360150000002813767827037213582_);">
			<defs>
				<path id="SVGID_00000090290059372449514340000001203994282290961330_" d="M12.9,0.2c-0.1,0-0.2,0-0.2,0c0,0-2.1,0-6,0.4
					c-2.6,0.2-4.6,0.6-6,1.1C0.4,1.7,0.2,2,0.2,2.3v19.5c0,4.5,10.5,8.6,12.8,9.4c0.1,0,0.3,0,0.4,0c2.3-0.8,12.8-5.3,12.8-9.4V2.3
					c0-0.3-0.2-0.6-0.6-0.7c-3.1-0.6-5.3-1-6.4-1.1c-3.2-0.4-5.1-0.4-6-0.4C13.1,0.2,13,0.2,12.9,0.2"/>
			</defs>
			<clipPath id="SVGID_00000088094237211273679580000016449459236851202969_">
				<use xlink:href="#SVGID_00000090290059372449514340000001203994282290961330_"  style="overflow:visible;"/>
			</clipPath>

				<linearGradient id="SVGID_00000053538825546865161100000005105530437570623880_" gradientUnits="userSpaceOnUse" x1="-0.1304" y1="55.9803" x2="0.1453" y2="55.9803" gradientTransform="matrix(167.95 -167.95 167.95 167.95 -9368.0205 -9406.8281)">
				<stop  offset="0" style="stop-color:#E66F25"/>
				<stop  offset="0.93" style="stop-color:#FEE457"/>
				<stop  offset="1" style="stop-color:#FEE457"/>
			</linearGradient>

				<polygon style="clip-path:url(#SVGID_00000088094237211273679580000016449459236851202969_);fill:url(#SVGID_00000053538825546865161100000005105530437570623880_);" points="
				13.2,44.3 41.8,15.7 13.2,-12.9 -15.4,15.7 			"/>
		</g>
		<g style="clip-path:url(#SVGID_00000014602757800204360150000002813767827037213582_);">
			<defs>
				<rect id="SVGID_00000040536016454079474910000013595175743821180820_" x="0.2" y="0.2" width="238.7" height="31.2"/>
			</defs>
			<clipPath id="SVGID_00000137850318495073160910000005649488556798303661_">
				<use xlink:href="#SVGID_00000040536016454079474910000013595175743821180820_"  style="overflow:visible;"/>
			</clipPath>
			<path style="clip-path:url(#SVGID_00000137850318495073160910000005649488556798303661_);fill:#FFFFFF;" d="M17.1,15.1
				c1.8-0.8,2.3-2.8,2.3-3.9S18.9,8,17.1,7.2c-0.5-0.2-1.7-0.4-3.3-0.4H7.2v8.7h6.7C15.9,15.5,16.6,15.3,17.1,15.1 M13.2,12.7h-1.8
				V9.6h1.8c0.7,0,2,0,2,1.6v0C15.2,12.7,13.9,12.7,13.2,12.7"/>
			<polygon style="clip-path:url(#SVGID_00000137850318495073160910000005649488556798303661_);fill:#FFFFFF;" points="13.2,16.6
				16.1,21.6 20.8,21.6 17.7,16.6 			"/>

				<rect x="7.2" y="16.6" style="clip-path:url(#SVGID_00000137850318495073160910000005649488556798303661_);fill:#FFFFFF;" width="4.2" height="3.5"/>
			<path style="clip-path:url(#SVGID_00000137850318495073160910000005649488556798303661_);fill:#183760;" d="M237.1,6.3h-0.5v1.4
				h-0.2V6.3h-0.5V6.2h1.2V6.3z M238.9,7.8h-0.2l-0.1-1.3h0l-0.5,1.3H238l-0.5-1.3l-0.1,1.3h-0.2l0.1-1.6h0.3l0.4,1.3l0.4-1.3h0.3
				L238.9,7.8z"/>
		</g>
	</g>
</g>
</svg>
